<svg width="16" height="16" viewBox="0 0 16 16" fill="none" xmlns="http://www.w3.org/2000/svg">
<g clip-path="url(#clip0_2073_1092)">
<path d="M14.6667 3.66675H6C5.26667 3.66675 4.66667 4.26675 4.66667 5.00008V11.0001C4.66667 11.3537 4.80714 11.6928 5.05719 11.9429C5.30724 12.1929 5.64638 12.3334 6 12.3334H14.6667C15.4067 12.3334 16 11.7401 16 11.0001V5.00008C16 4.64646 15.8595 4.30732 15.6095 4.05727C15.3594 3.80722 15.0203 3.66675 14.6667 3.66675ZM14.6667 6.11341L10.3333 8.33341L6 6.11341V5.00008L10.3333 7.20675L14.6667 5.00008V6.11341ZM3.33333 11.0001C3.33333 11.1134 3.35333 11.2201 3.36667 11.3334H0.666667C0.298667 11.3334 0 11.0334 0 10.6667C0 10.3001 0.298667 10.0001 0.666667 10.0001H3.33333V11.0001ZM2 4.66675H3.36667C3.35333 4.78008 3.33333 4.88675 3.33333 5.00008V6.00008H2C1.63333 6.00008 1.33333 5.70008 1.33333 5.33341C1.33333 4.96675 1.63333 4.66675 2 4.66675ZM0.666667 8.00008C0.666667 7.63341 0.966667 7.33341 1.33333 7.33341H3.33333V8.66675H1.33333C0.966667 8.66675 0.666667 8.36675 0.666667 8.00008Z" fill="#555555"/>
</g>
<defs>
<clipPath id="clip0_2073_1092">
<rect width="16" height="16" fill="white"/>
</clipPath>
</defs>
</svg>
