<svg width="16" height="16" viewBox="0 0 16 16" fill="none" xmlns="http://www.w3.org/2000/svg">
<path d="M1.47998 1.47997C1.39531 1.56463 1.34382 1.67686 1.33489 1.79627C1.32596 1.91567 1.36018 2.03432 1.43132 2.13063L1.47998 2.18663L4.16932 4.87663C2.85861 5.79632 1.92268 7.15702 1.53265 8.70997C1.50264 8.83784 1.52414 8.97238 1.59252 9.08452C1.6609 9.19666 1.77066 9.2774 1.89808 9.30927C2.02549 9.34115 2.16034 9.32161 2.27347 9.25488C2.38659 9.18814 2.46892 9.07957 2.50265 8.95263C2.84919 7.57425 3.70105 6.37641 4.88932 5.59663L6.09598 6.8033C5.61398 7.30696 5.34838 7.97935 5.35607 8.67645C5.36376 9.37355 5.64412 10.0399 6.13712 10.5328C6.63012 11.0257 7.29653 11.306 7.99363 11.3135C8.69073 11.3211 9.36307 11.0554 9.86665 10.5733L13.8127 14.52C13.9019 14.6094 14.0216 14.6618 14.1479 14.6665C14.2742 14.6713 14.3975 14.6281 14.4932 14.5456C14.5889 14.463 14.6498 14.3474 14.6637 14.2218C14.6775 14.0962 14.6434 13.97 14.568 13.8686L14.5193 13.8126L10.444 9.73663L10.4447 9.7353L5.81132 5.10463L5.81265 5.1033L5.05732 4.34997L2.18665 1.47997C2.0929 1.38633 1.96582 1.33374 1.83332 1.33374C1.70082 1.33374 1.57373 1.38633 1.47998 1.47997ZM7.99998 3.66663C7.33332 3.66663 6.68665 3.7653 6.07399 3.94997L6.89865 4.77397C8.32502 4.49154 9.80537 4.76802 11.0336 5.54625C12.2619 6.32448 13.1442 7.54495 13.498 8.9553C13.5325 9.08125 13.615 9.18869 13.7277 9.25464C13.8404 9.32059 13.9745 9.33981 14.1012 9.3082C14.2279 9.27658 14.3373 9.19664 14.4058 9.08547C14.4743 8.9743 14.4967 8.84072 14.468 8.7133C14.1068 7.27143 13.2741 5.99164 12.1022 5.07726C10.9303 4.16288 9.4864 3.66638 7.99998 3.66663ZM8.12998 6.00663L10.664 8.53997C10.6312 7.87857 10.3537 7.25298 9.88537 6.78478C9.41706 6.31659 8.79139 6.03924 8.12998 6.00663Z" fill="#555555"/>
</svg>
