<svg width="20" height="20" viewBox="0 0 20 20" fill="none" xmlns="http://www.w3.org/2000/svg">
<g clip-path="url(#clip0_2073_1117)">
<path d="M19.5348 10.1871C19.5348 9.36767 19.4683 8.76973 19.3244 8.14966H9.96777V11.848H15.4599C15.3492 12.7671 14.7513 14.1512 13.4225 15.0813L13.4039 15.2051L16.3623 17.4969L16.5672 17.5174C18.4496 15.7789 19.5348 13.221 19.5348 10.1871Z" fill="#4285F4"/>
<path d="M9.96761 19.9312C12.6583 19.9312 14.9172 19.0453 16.5671 17.5173L13.4223 15.0812C12.5808 15.6681 11.4514 16.0777 9.96761 16.0777C7.33227 16.0777 5.09555 14.3393 4.29822 11.9365L4.18135 11.9464L1.10517 14.3271L1.06494 14.439C2.70372 17.6944 6.0699 19.9312 9.96761 19.9312Z" fill="#34A853"/>
<path d="M4.29821 11.9366C4.08783 11.3165 3.96608 10.6521 3.96608 9.96559C3.96608 9.27902 4.08783 8.61467 4.28714 7.9946L4.28157 7.86254L1.16684 5.4436L1.06493 5.49208C0.38951 6.84299 0.00195312 8.36002 0.00195312 9.96559C0.00195312 11.5712 0.38951 13.0881 1.06493 14.439L4.29821 11.9366Z" fill="#FBBC05"/>
<path d="M9.96761 3.85336C11.8389 3.85336 13.1012 4.66168 13.821 5.33718L16.6335 2.59107C14.9062 0.985496 12.6583 0 9.96761 0C6.0699 0 2.70372 2.23672 1.06494 5.49214L4.28716 7.99466C5.09555 5.59183 7.33227 3.85336 9.96761 3.85336Z" fill="#EB4335"/>
</g>
<defs>
<clipPath id="clip0_2073_1117">
<rect width="19.5462" height="20" fill="white"/>
</clipPath>
</defs>
</svg>
