<svg width="16" height="16" viewBox="0 0 16 16" fill="none" xmlns="http://www.w3.org/2000/svg">
<path d="M7.99984 11.3334C8.35346 11.3334 8.6926 11.1929 8.94265 10.9429C9.19269 10.6928 9.33317 10.3537 9.33317 10.0001C9.33317 9.64646 9.19269 9.30732 8.94265 9.05727C8.6926 8.80722 8.35346 8.66675 7.99984 8.66675C7.64621 8.66675 7.30708 8.80722 7.05703 9.05727C6.80698 9.30732 6.6665 9.64646 6.6665 10.0001C6.6665 10.3537 6.80698 10.6928 7.05703 10.9429C7.30708 11.1929 7.64621 11.3334 7.99984 11.3334ZM11.9998 5.33342C12.3535 5.33342 12.6926 5.47389 12.9426 5.72394C13.1927 5.97399 13.3332 6.31313 13.3332 6.66675V13.3334C13.3332 13.687 13.1927 14.0262 12.9426 14.2762C12.6926 14.5263 12.3535 14.6667 11.9998 14.6667H3.99984C3.64622 14.6667 3.30708 14.5263 3.05703 14.2762C2.80698 14.0262 2.6665 13.687 2.6665 13.3334V6.66675C2.6665 6.31313 2.80698 5.97399 3.05703 5.72394C3.30708 5.47389 3.64622 5.33342 3.99984 5.33342H4.6665V4.00008C4.6665 3.11603 5.01769 2.26818 5.64281 1.64306C6.26794 1.01794 7.11578 0.666748 7.99984 0.666748C8.43758 0.666748 8.87103 0.752967 9.27545 0.920483C9.67987 1.088 10.0473 1.33353 10.3569 1.64306C10.6664 1.95259 10.9119 2.32005 11.0794 2.72447C11.247 3.12889 11.3332 3.56234 11.3332 4.00008V5.33342H11.9998ZM7.99984 2.00008C7.4694 2.00008 6.9607 2.2108 6.58562 2.58587C6.21055 2.96094 5.99984 3.46965 5.99984 4.00008V5.33342H9.99984V4.00008C9.99984 3.46965 9.78912 2.96094 9.41405 2.58587C9.03898 2.2108 8.53027 2.00008 7.99984 2.00008Z" fill="#555555"/>
</svg>
