<svg width="576" height="454" viewBox="0 0 576 454" fill="none" xmlns="http://www.w3.org/2000/svg">
<g clip-path="url(#clip0_2095_2)">
<path d="M524.311 413.724C513.269 425.546 500.617 435.753 486.727 444.045C486.409 444.241 486.085 444.425 485.76 444.615L463.274 424.713C463.51 424.494 463.771 424.248 464.053 423.977C480.807 408.068 563.983 296.834 569.526 269.747C569.143 272.004 574.527 360.5 524.311 413.724Z" fill="#F0F0F0"/>
<path d="M491.066 447.885C490.641 447.987 490.208 448.082 489.774 448.168L472.905 433.237C473.234 433.122 473.62 432.986 474.06 432.834C481.298 430.271 502.856 422.534 524.309 413.722C547.361 404.249 570.302 393.546 575.236 386.69C574.177 388.283 541.575 436.591 491.066 447.885Z" fill="#F0F0F0"/>
<path d="M523.999 119.322H521.596V53.5105C521.596 48.5084 520.611 43.5554 518.697 38.9341C516.783 34.3128 513.977 30.1137 510.44 26.5767C506.903 23.0398 502.704 20.2341 498.083 18.3198C493.462 16.4056 488.508 15.4204 483.506 15.4204H344.075C339.073 15.4204 334.12 16.4056 329.499 18.3198C324.877 20.234 320.678 23.0397 317.141 26.5767C313.604 30.1137 310.799 34.3127 308.885 38.9339C306.97 43.5552 305.985 48.5083 305.985 53.5104V414.559C305.985 419.561 306.97 424.514 308.885 429.135C310.799 433.757 313.604 437.956 317.141 441.493C320.678 445.03 324.877 447.835 329.499 449.75C334.12 451.664 339.073 452.649 344.075 452.649H483.506C488.508 452.649 493.461 451.664 498.083 449.75C502.704 447.835 506.903 445.03 510.44 441.493C513.977 437.956 516.783 433.757 518.697 429.135C520.611 424.514 521.596 419.561 521.596 414.559V166.168H523.999V119.322Z" fill="#3F3D56"/>
<path d="M513.488 53.7724V414.295C513.488 418.031 512.752 421.73 511.323 425.181C509.893 428.632 507.797 431.768 505.155 434.409C502.513 437.05 499.377 439.144 495.925 440.573C492.474 442.001 488.774 442.736 485.039 442.735H344.936C341.202 442.735 337.503 442 334.053 440.57C330.602 439.141 327.467 437.047 324.826 434.406C322.185 431.765 320.09 428.63 318.661 425.179C317.232 421.728 316.497 418.03 316.497 414.295V53.7724C316.497 50.0376 317.232 46.3393 318.661 42.8888C320.09 39.4382 322.185 36.303 324.826 33.6621C327.467 31.0212 330.602 28.9264 334.053 27.4973C337.503 26.0681 341.202 25.3327 344.936 25.333H361.938C361.104 27.3851 360.786 29.6109 361.014 31.8145C361.241 34.0181 362.007 36.1321 363.243 37.9705C364.479 39.8089 366.148 41.3154 368.103 42.3575C370.057 43.3997 372.238 43.9455 374.454 43.947H454.33C456.547 43.9491 458.73 43.4056 460.687 42.3644C462.644 41.3233 464.314 39.8165 465.551 37.977C466.788 36.1376 467.553 34.022 467.779 31.8169C468.005 29.6118 467.684 27.385 466.846 25.333H485.039C488.774 25.3317 492.474 26.0663 495.925 27.4949C499.377 28.9235 502.513 31.0181 505.155 33.6591C507.797 36.3 509.893 39.4356 511.323 42.8867C512.752 46.3378 513.488 50.0368 513.488 53.7724Z" fill="white"/>
<path d="M469.907 241.119H346.762C344.605 241.117 342.537 240.259 341.011 238.733C339.486 237.208 338.628 235.14 338.626 232.983V228.934C338.628 226.777 339.486 224.709 341.011 223.184C342.537 221.659 344.605 220.801 346.762 220.798H469.907C472.064 220.801 474.132 221.659 475.657 223.184C477.183 224.709 478.041 226.777 478.043 228.934V232.983C478.041 235.14 477.183 237.208 475.657 238.733C474.132 240.259 472.064 241.117 469.907 241.119Z" fill="#F0F0F0"/>
<path d="M469.907 276.027H346.762C344.605 276.024 342.537 275.166 341.011 273.641C339.486 272.116 338.628 270.048 338.626 267.891V263.842C338.628 261.685 339.486 259.617 341.011 258.092C342.537 256.566 344.605 255.708 346.762 255.706H469.907C472.064 255.708 474.132 256.566 475.657 258.092C477.183 259.617 478.041 261.685 478.043 263.842V267.891C478.041 270.048 477.183 272.116 475.657 273.641C474.132 275.166 472.064 276.024 469.907 276.027Z" fill="#F0F0F0"/>
<path d="M476.068 233.312H352.922C350.657 233.309 348.486 232.409 346.884 230.807C345.283 229.206 344.382 227.034 344.379 224.77V220.72C344.382 218.455 345.283 216.284 346.884 214.683C348.486 213.081 350.657 212.18 352.922 212.178H476.068C478.332 212.18 480.504 213.081 482.105 214.683C483.706 216.284 484.607 218.455 484.61 220.72V224.77C484.607 227.034 483.706 229.206 482.105 230.807C480.504 232.409 478.332 233.309 476.068 233.312ZM352.922 213.805C351.088 213.807 349.331 214.536 348.034 215.833C346.738 217.129 346.009 218.887 346.007 220.72V224.77C346.009 226.603 346.738 228.361 348.034 229.657C349.331 230.954 351.088 231.683 352.922 231.685H476.068C477.901 231.683 479.659 230.954 480.955 229.657C482.252 228.361 482.981 226.603 482.983 224.77V220.72C482.981 218.887 482.252 217.129 480.955 215.833C479.659 214.536 477.901 213.807 476.068 213.805H352.922Z" fill="#3F3D56"/>
<path d="M476.068 268.22H352.922C350.657 268.217 348.486 267.316 346.884 265.715C345.283 264.113 344.382 261.942 344.379 259.677V255.628C344.382 253.363 345.283 251.192 346.884 249.59C348.486 247.989 350.657 247.088 352.922 247.085H476.068C478.332 247.088 480.504 247.989 482.105 249.59C483.706 251.192 484.607 253.363 484.61 255.628V259.677C484.607 261.942 483.706 264.113 482.105 265.715C480.504 267.316 478.332 268.217 476.068 268.22ZM352.922 248.713C351.088 248.715 349.331 249.444 348.034 250.74C346.738 252.037 346.009 253.794 346.007 255.628V259.677C346.009 261.511 346.738 263.268 348.034 264.565C349.331 265.861 351.088 266.591 352.922 266.593H476.068C477.901 266.591 479.659 265.861 480.955 264.565C482.252 263.268 482.981 261.511 482.983 259.677V255.628C482.981 253.794 482.252 252.037 480.955 250.74C479.659 249.444 477.901 248.715 476.068 248.713H352.922Z" fill="#3F3D56"/>
<path d="M513.488 53.7724V132.191C501.028 135.469 487.982 135.845 475.353 133.291C462.724 130.736 450.85 125.318 440.644 117.454C430.438 109.59 422.172 99.4896 416.481 87.9298C410.791 76.37 407.828 63.6589 407.821 50.7745C407.821 48.4747 407.914 46.1989 408.099 43.947H454.33C456.547 43.9491 458.73 43.4056 460.687 42.3644C462.644 41.3233 464.314 39.8165 465.551 37.977C466.788 36.1376 467.553 34.022 467.779 31.8169C468.005 29.6118 467.684 27.385 466.846 25.333H485.039C488.774 25.3317 492.474 26.0663 495.925 27.4949C499.377 28.9235 502.513 31.0181 505.155 33.6591C507.797 36.3 509.893 39.4356 511.323 42.8867C512.752 46.3378 513.488 50.0368 513.488 53.7724Z" fill="#F0F0F0"/>
<path d="M387.287 437.837C387.287 439.49 387.226 441.123 387.092 442.735H344.936C341.202 442.735 337.503 441.999 334.053 440.57C330.602 439.141 327.467 437.046 324.826 434.406C322.185 431.765 320.09 428.629 318.661 425.179C317.232 421.728 316.497 418.03 316.497 414.295V375.733C325.333 374.583 334.313 375.331 342.838 377.925C351.363 380.519 359.237 384.901 365.936 390.777C372.634 396.654 378.003 403.891 381.685 412.005C385.367 420.12 387.277 428.926 387.287 437.837Z" fill="#1DBF73"/>
<path d="M47.2853 370.174C48.4698 370.695 49.8126 370.725 51.0192 370.257C52.2257 369.79 53.1975 368.862 53.7213 367.679L91.6977 281.609C92.5669 279.64 92.8325 277.457 92.4609 275.336C92.0893 273.215 91.0971 271.253 89.61 269.696C88.1228 268.139 86.2074 267.059 84.106 266.59C82.0046 266.122 79.8115 266.288 77.8042 267.066C75.4852 267.952 73.5445 269.614 72.3125 271.769C72.1165 272.11 71.9388 272.461 71.7801 272.821L33.8037 358.891C33.5449 359.477 33.4041 360.109 33.3895 360.75C33.3748 361.391 33.4865 362.028 33.7183 362.626C33.95 363.223 34.2972 363.77 34.74 364.233C35.1829 364.697 35.7127 365.068 36.2992 365.327L47.2853 370.174Z" fill="#1DBF73"/>
<path d="M90.1387 316.945L52.5752 308.597L61.8725 284.002C63.4564 277.99 67.1424 272.745 72.2619 269.218C77.3815 265.692 83.5955 264.117 89.7768 264.779L90.1387 264.819L90.1387 316.945Z" fill="#2F2E41"/>
<path d="M166.011 371.405C164.906 371.403 163.825 371.081 162.9 370.478C161.974 369.875 161.243 369.017 160.794 368.007L122.818 281.938C121.61 279.199 121.498 276.102 122.504 273.283C123.511 270.464 125.559 268.138 128.228 266.784C130.897 265.429 133.983 265.149 136.853 266.001C139.722 266.853 142.156 268.772 143.653 271.364C143.863 271.73 144.054 272.106 144.224 272.493L182.201 358.562C182.81 359.944 182.846 361.512 182.3 362.92C181.754 364.328 180.671 365.462 179.289 366.071L167.931 371.083L167.925 371.07C167.311 371.292 166.663 371.405 166.011 371.405Z" fill="#1DBF73"/>
<path d="M113.48 341.849C112.185 341.851 110.945 342.365 110.029 343.28C109.114 344.196 108.6 345.436 108.598 346.73V446.81C108.6 448.104 109.114 449.345 110.029 450.26C110.945 451.175 112.185 451.69 113.48 451.691H125.487C126.781 451.69 128.022 451.175 128.937 450.26C129.852 449.345 130.367 448.104 130.369 446.81V346.73C130.367 345.436 129.852 344.196 128.937 343.28C128.022 342.365 126.781 341.851 125.487 341.849H113.48Z" fill="#1DBF73"/>
<path d="M89.73 341.849C88.4358 341.851 87.1951 342.365 86.2799 343.28C85.3648 344.196 84.8501 345.436 84.8486 346.73V446.81C84.8501 448.104 85.3648 449.345 86.2799 450.26C87.1951 451.175 88.4358 451.69 89.73 451.691H101.738C103.032 451.69 104.273 451.175 105.188 450.26C106.103 449.345 106.618 448.104 106.619 446.81V346.73C106.618 345.436 106.103 344.196 105.188 343.28C104.273 342.365 103.032 341.851 101.738 341.849H89.73Z" fill="#1DBF73"/>
<path d="M107.25 236.999C130.165 236.999 148.741 218.422 148.741 195.507C148.741 172.592 130.165 154.016 107.25 154.016C84.3347 154.016 65.7583 172.592 65.7583 195.507C65.7583 218.422 84.3347 236.999 107.25 236.999Z" fill="#1DBF73"/>
<path d="M121.057 212.925C123.747 212.85 127.094 212.757 129.673 210.873C130.441 210.289 131.072 209.544 131.522 208.691C131.971 207.837 132.229 206.896 132.277 205.933C132.323 205.248 132.211 204.561 131.948 203.927C131.686 203.293 131.28 202.728 130.763 202.277C129.416 201.139 127.449 200.872 125.33 201.495L127.526 185.447L125.914 185.226L123.332 204.092L124.678 203.475C126.239 202.759 128.381 202.395 129.713 203.52C130.04 203.814 130.294 204.179 130.457 204.588C130.62 204.996 130.686 205.437 130.65 205.875C130.611 206.592 130.418 207.293 130.083 207.928C129.749 208.564 129.282 209.12 128.713 209.559C126.706 211.025 124.038 211.214 121.012 211.299L121.057 212.925Z" fill="#2F2E41"/>
<path d="M144.261 186.831H135.498V188.458H144.261V186.831Z" fill="#2F2E41"/>
<path d="M116.6 186.831H107.837V188.458H116.6V186.831Z" fill="#2F2E41"/>
<path d="M148.362 371.911L133.429 262.894C133.268 261.725 132.69 260.653 131.801 259.878C130.912 259.102 129.772 258.675 128.592 258.675H117.32C117.367 258.406 117.391 258.134 117.393 257.861V253.793C117.393 252.499 116.879 251.257 115.963 250.342C115.048 249.426 113.806 248.912 112.512 248.912H102.749C101.454 248.912 100.213 249.426 99.2973 250.342C98.3818 251.257 97.8675 252.499 97.8675 253.793V257.861C97.8692 258.134 97.8937 258.406 97.9406 258.675H86.6684C85.4885 258.675 84.3485 259.102 83.4594 259.878C82.5703 260.653 81.9921 261.725 81.8319 262.894L66.8982 371.911C66.8036 372.601 66.858 373.304 67.0577 373.972C67.2574 374.639 67.5977 375.257 68.0559 375.782C68.5141 376.307 69.0794 376.728 69.7139 377.017C70.3484 377.305 71.0373 377.454 71.7343 377.454H143.526C144.223 377.454 144.912 377.305 145.546 377.017C146.181 376.728 146.746 376.307 147.204 375.782C147.663 375.257 148.003 374.64 148.203 373.972C148.402 373.304 148.457 372.601 148.362 371.911Z" fill="#2F2E41"/>
<path d="M125.122 316.945V264.819L125.483 264.779C131.672 264.117 137.893 265.697 143.016 269.232C148.139 272.768 151.824 278.023 153.401 284.044L162.685 308.597L125.122 316.945Z" fill="#2F2E41"/>
<path d="M105.161 238.294L76.4621 227.154C71.7693 225.333 67.0502 223.567 62.3822 221.683C60.3827 220.986 58.5408 219.9 56.9627 218.488C55.5887 217.034 54.6523 215.222 54.2607 213.26C53.2654 209.053 53.4453 204.453 53.5163 200.159C53.5714 195.463 53.9579 190.776 54.673 186.133C55.9263 177.409 58.8695 169.014 63.3376 161.417C71.3859 148.212 85.2526 138.276 101.203 139.069C108.587 139.436 116.014 142.086 121.501 147.135C122.073 147.819 122.715 148.441 123.417 148.992C123.904 149.175 124.435 149.21 124.943 149.094C125.612 149.051 126.282 149.018 126.953 148.996C129.28 148.897 131.611 148.995 133.922 149.288C138.132 149.743 142.123 151.4 145.417 154.061C148.159 156.42 150.39 159.749 150.62 163.45C150.731 165.148 150.45 166.85 149.799 168.423C149.148 169.995 148.144 171.398 146.866 172.521C143.442 175.407 138.557 174.393 134.45 174.175L119.404 173.378L111.781 172.974C110.211 172.891 110.216 175.332 111.781 175.415L132.042 176.488C135.298 176.661 138.654 177.084 141.913 176.888C144.417 176.775 146.808 175.813 148.692 174.161C150.414 172.58 151.696 170.579 152.414 168.355C153.132 166.13 153.262 163.758 152.79 161.468C151.745 156.475 148.029 152.345 143.673 149.887C137.745 146.544 130.665 146.223 124.033 146.718L124.896 147.075C117.393 139.022 105.9 135.622 95.111 136.812C83.7193 138.069 73.5874 144.424 66.3077 153.114C58.1913 162.803 53.7683 174.884 52.0489 187.308C51.154 194.015 50.8594 200.789 51.1686 207.549C51.1559 210.53 51.6659 213.49 52.6755 216.295C53.8275 219.025 55.9103 221.258 58.5536 222.597C61.584 224.06 64.6996 225.34 67.8833 226.43L78.4566 230.534L99.2253 238.595L104.512 240.647C105.977 241.216 106.612 238.857 105.161 238.294Z" fill="#2F2E41"/>
<path d="M60.0369 155.353C57.5429 155.353 55.1048 154.613 53.0311 153.227C50.9574 151.842 49.3411 149.872 48.3867 147.568C47.4322 145.264 47.1825 142.729 47.6691 140.282C48.1556 137.836 49.3566 135.589 51.1202 133.826C52.8837 132.062 55.1307 130.861 57.5768 130.375C60.023 129.888 62.5584 130.138 64.8626 131.092C67.1668 132.047 69.1363 133.663 70.5219 135.737C71.9075 137.81 72.6471 140.248 72.6471 142.743C72.6434 146.086 71.3136 149.291 68.9495 151.655C66.5855 154.019 63.3802 155.349 60.0369 155.353ZM60.0369 132.573C58.0256 132.573 56.0594 133.169 54.3871 134.287C52.7147 135.404 51.4113 136.993 50.6416 138.851C49.8718 140.709 49.6704 142.754 50.0628 144.726C50.4552 146.699 51.4238 148.511 52.846 149.933C54.2682 151.356 56.0803 152.324 58.053 152.717C60.0257 153.109 62.0704 152.908 63.9286 152.138C65.7869 151.368 67.3751 150.065 68.4926 148.392C69.61 146.72 70.2064 144.754 70.2064 142.743C70.2034 140.046 69.131 137.461 67.2245 135.555C65.318 133.648 62.7331 132.576 60.0369 132.573Z" fill="#2F2E41"/>
<path d="M270.833 233.499L243.539 212.624L222.664 239.918L249.958 260.793L270.833 233.499Z" fill="#F0F0F0"/>
<path d="M116.579 47.1493C120.892 47.1459 125.145 48.1524 128.999 50.0882C132.852 52.0239 136.199 54.8352 138.771 58.2968L154.708 37.4585L106.888 0.884277L70.3145 48.7045L90.9247 64.4679C92.9873 59.3526 96.5318 54.9706 101.103 51.8847C105.674 48.7987 111.064 47.1497 116.579 47.1493Z" fill="#F0F0F0"/>
<path d="M575.186 453.115H0.813559C0.59779 453.115 0.390857 453.03 0.238285 452.877C0.0857134 452.725 0 452.518 0 452.302C0 452.086 0.0857134 451.879 0.238285 451.727C0.390857 451.574 0.59779 451.488 0.813559 451.488H575.186C575.402 451.488 575.609 451.574 575.762 451.727C575.914 451.879 576 452.086 576 452.302C576 452.518 575.914 452.725 575.762 452.877C575.609 453.03 575.402 453.115 575.186 453.115Z" fill="#3F3D56"/>
<path d="M435 318.121H376.536C374.379 318.119 372.311 317.261 370.786 315.735C369.261 314.21 368.403 312.142 368.4 309.985V305.936C368.403 303.779 369.261 301.711 370.786 300.186C372.311 298.661 374.379 297.803 376.536 297.8H435C437.157 297.803 439.225 298.661 440.75 300.186C442.275 301.711 443.133 303.779 443.136 305.936V309.985C443.133 312.142 442.275 314.21 440.75 315.735C439.225 317.261 437.157 318.119 435 318.121Z" fill="#1DBF73"/>
<path d="M441.16 310.314H382.696C380.431 310.312 378.26 309.411 376.658 307.81C375.057 306.208 374.156 304.037 374.154 301.772V297.723C374.156 295.458 375.057 293.286 376.658 291.685C378.26 290.084 380.431 289.183 382.696 289.18H441.16C443.425 289.183 445.596 290.084 447.198 291.685C448.799 293.286 449.7 295.458 449.703 297.723V301.772C449.7 304.037 448.799 306.208 447.198 307.81C445.596 309.411 443.425 310.312 441.16 310.314ZM382.696 290.807C380.863 290.809 379.105 291.539 377.808 292.835C376.512 294.131 375.783 295.889 375.781 297.723V301.772C375.783 303.605 376.512 305.363 377.808 306.66C379.105 307.956 380.863 308.685 382.696 308.687H441.16C442.994 308.685 444.751 307.956 446.048 306.66C447.344 305.363 448.073 303.605 448.075 301.772V297.723C448.073 295.889 447.344 294.131 446.048 292.835C444.751 291.539 442.994 290.809 441.16 290.807H382.696Z" fill="#3F3D56"/>
</g>
<defs>
<clipPath id="clip0_2095_2">
<rect width="576" height="452.231" fill="white" transform="translate(0 0.884277)"/>
</clipPath>
</defs>
</svg>
