<svg width="16" height="16" viewBox="0 0 16 16" fill="none" xmlns="http://www.w3.org/2000/svg">
<path d="M10.1924 9.78456C10.0946 9.75256 9.4761 9.47379 9.86256 8.29902H9.85702C10.8644 7.26149 11.6343 5.59195 11.6343 3.94826C11.6343 1.42087 9.95364 0.0959473 8.00041 0.0959473C6.04595 0.0959473 4.37456 1.42025 4.37456 3.94826C4.37456 5.59872 5.1401 7.27502 6.15364 8.3101C6.54872 9.34641 5.84225 9.73102 5.69456 9.78518C3.64902 10.5249 1.24902 11.8732 1.24902 13.2043V13.7033C1.24902 15.5169 4.76533 15.9292 8.01948 15.9292C11.2786 15.9292 14.7506 15.5169 14.7506 13.7033V13.2043C14.7506 11.8332 12.3389 10.4953 10.1924 9.78456Z" fill="#555555"/>
</svg>
